<svg xmlns="http://www.w3.org/2000/svg" xmlns:xlink="http://www.w3.org/1999/xlink" width="192" zoomAndPan="magnify" viewBox="0 0 144 143.999998" height="192" preserveAspectRatio="xMidYMid meet" version="1.0"><defs><g/><clipPath id="394838c388"><path d="M 42.847656 25.839844 L 99 25.839844 L 99 92.589844 L 42.847656 92.589844 Z M 42.847656 25.839844 " clip-rule="nonzero"/></clipPath><clipPath id="c1b6e8e560"><path d="M 92 39 L 98 39 L 98 71 L 92 71 Z M 92 39 " clip-rule="nonzero"/></clipPath><clipPath id="c2409153fe"><path d="M 92.285156 70.726562 L 93.667969 39.65625 L 97.046875 39.808594 L 95.664062 70.875 Z M 92.285156 70.726562 " clip-rule="nonzero"/></clipPath><clipPath id="8bde61847f"><path d="M 0.160156 0.601562 L 5.199219 0.601562 L 5.199219 32 L 0.160156 32 Z M 0.160156 0.601562 " clip-rule="nonzero"/></clipPath><clipPath id="700d6baaf9"><path d="M 0.285156 31.726562 L 1.667969 0.65625 L 5.046875 0.808594 L 3.664062 31.875 Z M 0.285156 31.726562 " clip-rule="nonzero"/></clipPath><clipPath id="73c3401620"><rect x="0" width="6" y="0" height="32"/></clipPath><clipPath id="884d5b0bd8"><path d="M 44 39 L 50 39 L 50 71 L 44 71 Z M 44 39 " clip-rule="nonzero"/></clipPath><clipPath id="ea88282cfd"><path d="M 48.140625 39.660156 L 49.730469 70.71875 L 46.355469 70.890625 L 44.765625 39.832031 Z M 48.140625 39.660156 " clip-rule="nonzero"/></clipPath><clipPath id="32c8430ef6"><path d="M 0.640625 0.601562 L 5.921875 0.601562 L 5.921875 32 L 0.640625 32 Z M 0.640625 0.601562 " clip-rule="nonzero"/></clipPath><clipPath id="67a673ea95"><path d="M 4.140625 0.660156 L 5.730469 31.71875 L 2.355469 31.890625 L 0.765625 0.832031 Z M 4.140625 0.660156 " clip-rule="nonzero"/></clipPath><clipPath id="970fe29a9e"><rect x="0" width="6" y="0" height="32"/></clipPath><clipPath id="1574882b02"><path d="M 56.136719 28.441406 L 85.683594 28.441406 L 85.683594 30.785156 L 56.136719 30.785156 Z M 56.136719 28.441406 " clip-rule="nonzero"/></clipPath><clipPath id="ec84accab4"><path d="M 0.136719 0.441406 L 29.683594 0.441406 L 29.683594 2.785156 L 0.136719 2.785156 Z M 0.136719 0.441406 " clip-rule="nonzero"/></clipPath><clipPath id="d9daed4ee8"><rect x="0" width="30" y="0" height="3"/></clipPath><clipPath id="298bdce4cf"><path d="M 37 28.675781 L 70 28.675781 L 70 69 L 37 69 Z M 37 28.675781 " clip-rule="nonzero"/></clipPath><clipPath id="c1056856f3"><path d="M 72 28.675781 L 105 28.675781 L 105 69 L 72 69 Z M 72 28.675781 " clip-rule="nonzero"/></clipPath><clipPath id="1c16976f53"><path d="M 27.695312 69 L 113.945312 69 L 113.945312 102.925781 L 27.695312 102.925781 Z M 27.695312 69 " clip-rule="nonzero"/></clipPath><clipPath id="128a5e1f69"><path d="M 28.824219 85.695312 L 115.183594 85.695312 L 115.183594 108.796875 L 28.824219 108.796875 Z M 28.824219 85.695312 " clip-rule="nonzero"/></clipPath><clipPath id="36fcf40f5d"><path d="M 72 85.695312 C 48.15625 85.695312 28.824219 90.867188 28.824219 97.246094 C 28.824219 103.625 48.15625 108.796875 72 108.796875 C 95.84375 108.796875 115.175781 103.625 115.175781 97.246094 C 115.175781 90.867188 95.84375 85.695312 72 85.695312 Z M 72 85.695312 " clip-rule="nonzero"/></clipPath><clipPath id="2f6695ef88"><path d="M 0.824219 0.695312 L 87.183594 0.695312 L 87.183594 23.796875 L 0.824219 23.796875 Z M 0.824219 0.695312 " clip-rule="nonzero"/></clipPath><clipPath id="2b9eea927d"><path d="M 44 0.695312 C 20.15625 0.695312 0.824219 5.867188 0.824219 12.246094 C 0.824219 18.625 20.15625 23.796875 44 23.796875 C 67.84375 23.796875 87.175781 18.625 87.175781 12.246094 C 87.175781 5.867188 67.84375 0.695312 44 0.695312 Z M 44 0.695312 " clip-rule="nonzero"/></clipPath><clipPath id="ff93bcbc99"><rect x="0" width="88" y="0" height="24"/></clipPath><clipPath id="65fb93d32e"><rect x="0" width="106" y="0" height="38"/></clipPath><clipPath id="419c37fa3a"><path d="M 0.601562 0.199219 L 6 0.199219 L 6 6 L 0.601562 6 Z M 0.601562 0.199219 " clip-rule="nonzero"/></clipPath><clipPath id="60ce4620e0"><path d="M 7 0.199219 L 12 0.199219 L 12 6 L 7 6 Z M 7 0.199219 " clip-rule="nonzero"/></clipPath><clipPath id="dba49895d6"><path d="M 13 0.199219 L 15 0.199219 L 15 6 L 13 6 Z M 13 0.199219 " clip-rule="nonzero"/></clipPath><clipPath id="160e62dce2"><path d="M 17 0.199219 L 21 0.199219 L 21 5 L 17 5 Z M 17 0.199219 " clip-rule="nonzero"/></clipPath><clipPath id="b8a26089c7"><path d="M 23 0.199219 L 28 0.199219 L 28 5 L 23 5 Z M 23 0.199219 " clip-rule="nonzero"/></clipPath><clipPath id="e685562cd2"><path d="M 29 0.199219 L 34 0.199219 L 34 6 L 29 6 Z M 29 0.199219 " clip-rule="nonzero"/></clipPath><clipPath id="01b908c03d"><path d="M 35 0.199219 L 41.398438 0.199219 L 41.398438 6 L 35 6 Z M 35 0.199219 " clip-rule="nonzero"/></clipPath><clipPath id="667eee7ba5"><rect x="0" width="42" y="0" height="7"/></clipPath></defs><rect x="-14.4" width="172.8" fill="#ffffff" y="-14.4" height="172.799997" fill-opacity="1"/><rect x="-14.4" width="172.8" fill="#000000" y="-14.4" height="172.799997" fill-opacity="1"/><g clip-path="url(#394838c388)"><path fill="#f9ff5e" d="M 70.867188 92.203125 C 69.085938 92.207031 67.453125 91.714844 65.964844 90.738281 L 54.085938 82.933594 C 52.355469 81.800781 50.789062 80.472656 49.386719 78.949219 C 47.988281 77.421875 46.796875 75.75 45.8125 73.929688 C 44.828125 72.105469 44.085938 70.191406 43.578125 68.183594 C 43.074219 66.175781 42.824219 64.140625 42.824219 62.070312 L 42.824219 37.339844 C 42.824219 37.136719 42.898438 36.964844 43.042969 36.820312 C 43.1875 36.675781 43.359375 36.605469 43.5625 36.605469 L 46.816406 36.605469 C 47.253906 36.605469 47.683594 36.5625 48.109375 36.476562 C 48.535156 36.390625 48.949219 36.265625 49.347656 36.097656 C 49.75 35.933594 50.128906 35.726562 50.492188 35.488281 C 50.851562 35.246094 51.1875 34.972656 51.492188 34.664062 C 51.800781 34.355469 52.074219 34.023438 52.316406 33.660156 C 52.558594 33.300781 52.761719 32.917969 52.929688 32.519531 C 53.09375 32.117188 53.21875 31.703125 53.304688 31.277344 C 53.390625 30.851562 53.433594 30.421875 53.433594 29.988281 L 53.433594 26.730469 C 53.433594 26.527344 53.503906 26.351562 53.648438 26.207031 C 53.792969 26.066406 53.96875 25.992188 54.171875 25.992188 L 87.5625 25.992188 C 87.765625 25.992188 87.941406 26.066406 88.085938 26.207031 C 88.230469 26.351562 88.300781 26.527344 88.300781 26.730469 L 88.300781 29.984375 C 88.300781 30.417969 88.34375 30.847656 88.429688 31.273438 C 88.515625 31.699219 88.640625 32.113281 88.808594 32.515625 C 88.972656 32.917969 89.175781 33.296875 89.417969 33.660156 C 89.660156 34.019531 89.933594 34.355469 90.242188 34.660156 C 90.546875 34.96875 90.882812 35.242188 91.242188 35.484375 C 91.605469 35.726562 91.984375 35.929688 92.386719 36.09375 C 92.789062 36.261719 93.199219 36.386719 93.625 36.472656 C 94.050781 36.558594 94.484375 36.601562 94.917969 36.601562 L 98.171875 36.601562 C 98.375 36.601562 98.550781 36.671875 98.691406 36.816406 C 98.835938 36.960938 98.910156 37.136719 98.910156 37.339844 L 98.910156 62.070312 C 98.910156 64.140625 98.660156 66.175781 98.15625 68.183594 C 97.648438 70.191406 96.90625 72.105469 95.921875 73.929688 C 94.941406 75.75 93.746094 77.421875 92.347656 78.949219 C 90.945312 80.472656 89.378906 81.800781 87.648438 82.933594 L 75.769531 90.734375 C 74.28125 91.714844 72.648438 92.203125 70.867188 92.203125 Z M 44.300781 38.085938 L 44.300781 62.070312 C 44.296875 64.015625 44.535156 65.933594 45.007812 67.824219 C 45.484375 69.710938 46.183594 71.515625 47.109375 73.226562 C 48.035156 74.941406 49.15625 76.515625 50.476562 77.949219 C 51.792969 79.386719 53.265625 80.636719 54.894531 81.703125 L 66.773438 89.5 C 67.386719 89.894531 68.039062 90.191406 68.734375 90.394531 C 69.429688 90.601562 70.140625 90.703125 70.867188 90.703125 C 71.59375 90.703125 72.304688 90.601562 73 90.394531 C 73.695312 90.191406 74.347656 89.894531 74.960938 89.5 L 86.839844 81.699219 C 88.46875 80.632812 89.941406 79.382812 91.261719 77.949219 C 92.578125 76.515625 93.699219 74.941406 94.625 73.226562 C 95.550781 71.515625 96.25 69.710938 96.726562 67.824219 C 97.199219 65.933594 97.4375 64.015625 97.433594 62.070312 L 97.433594 38.078125 L 94.917969 38.078125 C 94.386719 38.078125 93.859375 38.027344 93.339844 37.921875 C 92.820312 37.816406 92.3125 37.664062 91.820312 37.460938 C 91.332031 37.257812 90.867188 37.007812 90.425781 36.710938 C 89.984375 36.417969 89.574219 36.082031 89.199219 35.707031 C 88.824219 35.332031 88.488281 34.921875 88.191406 34.480469 C 87.898438 34.039062 87.648438 33.574219 87.445312 33.082031 C 87.242188 32.59375 87.085938 32.085938 86.984375 31.566406 C 86.878906 31.042969 86.828125 30.519531 86.828125 29.988281 L 86.828125 27.46875 L 54.910156 27.46875 L 54.910156 29.984375 C 54.90625 30.515625 54.855469 31.042969 54.75 31.5625 C 54.648438 32.082031 54.496094 32.589844 54.289062 33.082031 C 54.085938 33.570312 53.839844 34.039062 53.542969 34.480469 C 53.246094 34.921875 52.914062 35.328125 52.535156 35.703125 C 52.160156 36.082031 51.753906 36.417969 51.3125 36.710938 C 50.871094 37.007812 50.402344 37.257812 49.914062 37.460938 C 49.421875 37.664062 48.917969 37.816406 48.394531 37.921875 C 47.875 38.027344 47.347656 38.078125 46.816406 38.078125 Z M 70.867188 88.945312 C 69.734375 88.945312 68.699219 88.636719 67.753906 88.015625 L 55.871094 80.214844 C 54.367188 79.226562 53.003906 78.074219 51.785156 76.746094 C 50.570312 75.421875 49.53125 73.964844 48.675781 72.382812 C 47.824219 70.796875 47.175781 69.132812 46.734375 67.386719 C 46.296875 65.640625 46.078125 63.867188 46.082031 62.070312 L 46.082031 40.597656 C 46.082031 40.390625 46.152344 40.21875 46.296875 40.074219 C 46.441406 39.929688 46.613281 39.859375 46.816406 39.859375 C 47.464844 39.859375 48.105469 39.792969 48.742188 39.667969 C 49.378906 39.539062 49.996094 39.351562 50.59375 39.105469 C 51.191406 38.855469 51.761719 38.550781 52.300781 38.191406 C 52.839844 37.832031 53.335938 37.421875 53.792969 36.964844 C 54.253906 36.507812 54.664062 36.007812 55.023438 35.46875 C 55.382812 34.929688 55.6875 34.363281 55.933594 33.765625 C 56.183594 33.164062 56.371094 32.546875 56.496094 31.914062 C 56.625 31.277344 56.6875 30.636719 56.6875 29.988281 C 56.6875 29.785156 56.761719 29.609375 56.90625 29.46875 C 57.046875 29.324219 57.222656 29.25 57.425781 29.25 L 84.308594 29.25 C 84.511719 29.25 84.6875 29.324219 84.828125 29.46875 C 84.972656 29.609375 85.046875 29.785156 85.046875 29.988281 C 85.046875 30.636719 85.109375 31.277344 85.238281 31.914062 C 85.363281 32.546875 85.550781 33.164062 85.800781 33.765625 C 86.046875 34.363281 86.351562 34.929688 86.710938 35.46875 C 87.074219 36.007812 87.480469 36.507812 87.941406 36.964844 C 88.398438 37.421875 88.898438 37.832031 89.433594 38.191406 C 89.972656 38.550781 90.542969 38.855469 91.140625 39.105469 C 91.738281 39.351562 92.355469 39.539062 92.992188 39.667969 C 93.628906 39.792969 94.269531 39.859375 94.917969 39.859375 C 95.121094 39.859375 95.292969 39.929688 95.4375 40.074219 C 95.582031 40.21875 95.652344 40.390625 95.652344 40.597656 L 95.652344 62.070312 C 95.65625 63.867188 95.4375 65.640625 95 67.386719 C 94.558594 69.132812 93.914062 70.796875 93.058594 72.382812 C 92.203125 73.964844 91.167969 75.421875 89.949219 76.746094 C 88.730469 78.074219 87.367188 79.226562 85.863281 80.214844 L 73.984375 88.015625 C 73.035156 88.636719 72 88.945312 70.867188 88.945312 Z M 47.554688 41.308594 L 47.554688 62.070312 C 47.550781 63.746094 47.757812 65.398438 48.164062 67.027344 C 48.574219 68.652344 49.179688 70.203125 49.976562 71.679688 C 50.773438 73.15625 51.738281 74.515625 52.875 75.75 C 54.007812 76.984375 55.277344 78.0625 56.683594 78.980469 L 68.5625 86.78125 C 68.902344 87.007812 69.273438 87.175781 69.664062 87.292969 C 70.058594 87.414062 70.457031 87.472656 70.867188 87.472656 C 71.277344 87.472656 71.679688 87.414062 72.070312 87.292969 C 72.464844 87.175781 72.832031 87.007812 73.171875 86.78125 L 85.050781 78.980469 C 86.457031 78.0625 87.726562 76.984375 88.859375 75.75 C 89.996094 74.515625 90.960938 73.15625 91.757812 71.679688 C 92.554688 70.203125 93.160156 68.652344 93.570312 67.027344 C 93.980469 65.398438 94.183594 63.746094 94.179688 62.070312 L 94.179688 41.308594 C 93.5 41.265625 92.828125 41.160156 92.164062 40.992188 C 91.503906 40.824219 90.859375 40.601562 90.238281 40.320312 C 89.617188 40.039062 89.027344 39.703125 88.464844 39.3125 C 87.902344 38.925781 87.382812 38.488281 86.898438 38.007812 C 86.417969 37.523438 85.980469 37 85.589844 36.441406 C 85.203125 35.878906 84.867188 35.289062 84.585938 34.667969 C 84.304688 34.042969 84.078125 33.402344 83.914062 32.742188 C 83.746094 32.078125 83.640625 31.40625 83.59375 30.726562 L 58.140625 30.726562 C 58.09375 31.40625 57.988281 32.078125 57.820312 32.742188 C 57.65625 33.402344 57.429688 34.042969 57.148438 34.667969 C 56.867188 35.289062 56.53125 35.878906 56.144531 36.441406 C 55.753906 37 55.320312 37.523438 54.835938 38.007812 C 54.351562 38.488281 53.832031 38.925781 53.269531 39.3125 C 52.707031 39.703125 52.117188 40.039062 51.496094 40.320312 C 50.875 40.601562 50.230469 40.824219 49.570312 40.992188 C 48.90625 41.160156 48.234375 41.265625 47.554688 41.308594 Z M 85.457031 79.59375 Z M 85.457031 79.59375 " fill-opacity="1" fill-rule="nonzero"/></g><g clip-path="url(#c1b6e8e560)"><g clip-path="url(#c2409153fe)"><g transform="matrix(1, 0, 0, 1, 92, 39)"><g clip-path="url(#73c3401620)"><g clip-path="url(#8bde61847f)"><g clip-path="url(#700d6baaf9)"><path fill="#08090b" d="M 0.285156 31.726562 L 1.667969 0.65625 L 5.046875 0.808594 L 3.664062 31.875 Z M 0.285156 31.726562 " fill-opacity="1" fill-rule="nonzero"/></g></g></g></g></g></g><g clip-path="url(#884d5b0bd8)"><g clip-path="url(#ea88282cfd)"><g transform="matrix(1, 0, 0, 1, 44, 39)"><g clip-path="url(#970fe29a9e)"><g clip-path="url(#32c8430ef6)"><g clip-path="url(#67a673ea95)"><path fill="#08090b" d="M 4.140625 0.660156 L 5.730469 31.71875 L 2.355469 31.890625 L 0.765625 0.832031 Z M 4.140625 0.660156 " fill-opacity="1" fill-rule="nonzero"/></g></g></g></g></g></g><g clip-path="url(#1574882b02)"><g transform="matrix(1, 0, 0, 1, 56, 28)"><g clip-path="url(#d9daed4ee8)"><g clip-path="url(#ec84accab4)"><path fill="#08090b" d="M 0.136719 0.441406 L 29.683594 0.441406 L 29.683594 2.785156 L 0.136719 2.785156 Z M 0.136719 0.441406 " fill-opacity="1" fill-rule="nonzero"/></g></g></g></g><path fill="#ffa237" d="M 59.15625 59.136719 C 60.417969 60.089844 62.121094 60.515625 63.667969 60.730469 L 66.375 60.898438 C 63.863281 58.550781 60.722656 57.355469 57.304688 57.191406 C 57.859375 57.917969 58.425781 58.589844 59.15625 59.136719 Z M 59.15625 59.136719 " fill-opacity="1" fill-rule="nonzero"/><path fill="#ffa237" d="M 84.042969 57.171875 C 81.386719 57.480469 78.664062 58.261719 76.53125 59.953125 C 76.144531 60.265625 75.6875 60.625 75.375 61.011719 C 75.441406 61.03125 75.5 61.0625 75.578125 61.070312 C 78.371094 60.945312 81.445312 60.554688 83.421875 58.375 C 83.734375 58.035156 84.015625 57.617188 84.21875 57.210938 C 84.113281 57.140625 84.171875 57.152344 84.042969 57.171875 Z M 84.042969 57.171875 " fill-opacity="1" fill-rule="nonzero"/><path fill="#ffa237" d="M 64.449219 74.527344 C 65.710938 75.980469 67.96875 78.605469 69.917969 79.035156 C 71.082031 79.285156 72.28125 78.996094 73.261719 78.351562 C 75.707031 76.757812 77.71875 74.257812 79.5 71.988281 C 81.046875 69.925781 82.945312 67.777344 83.617188 65.246094 C 83.792969 64.574219 83.910156 63.816406 83.820312 63.125 L 83.734375 62.726562 L 83.675781 62.484375 C 80.726562 63.84375 77.390625 65.0625 74.121094 64.058594 C 73.097656 63.746094 72.066406 63.269531 70.976562 63.25 C 70.617188 63.25 70.257812 63.320312 69.90625 63.378906 C 68.972656 63.535156 68.085938 63.992188 67.152344 64.175781 C 64.660156 64.664062 62.609375 64.390625 60.273438 63.417969 C 59.574219 63.125 58.882812 62.746094 58.152344 62.511719 C 57.695312 64.644531 58.316406 66.367188 59.476562 68.136719 C 60.945312 70.382812 62.667969 72.503906 64.449219 74.527344 Z M 77.808594 67.320312 C 78.585938 66.988281 79.355469 66.617188 80.09375 66.199219 C 80.6875 65.867188 81.269531 65.460938 81.902344 65.207031 L 82.03125 65.1875 L 82.097656 65.265625 C 81.75 65.847656 81.261719 66.347656 80.707031 66.746094 C 79.722656 67.453125 77.972656 68 76.765625 67.816406 L 76.648438 67.816406 L 76.589844 67.738281 C 76.988281 67.6875 77.429688 67.472656 77.808594 67.320312 Z M 62.09375 66.328125 C 63.105469 66.902344 64.164062 67.367188 65.253906 67.765625 L 65.265625 67.894531 C 64.585938 68.125 63.523438 67.785156 62.871094 67.5625 C 61.527344 67.105469 60.46875 66.375 59.835938 65.082031 C 60.632812 65.390625 61.363281 65.917969 62.09375 66.328125 Z M 62.09375 66.328125 " fill-opacity="1" fill-rule="nonzero"/><g clip-path="url(#298bdce4cf)"><path fill="#ffa237" d="M 40.003906 68.710938 C 39.1875 66.0625 38.039062 62.941406 39.449219 60.292969 C 40.179688 58.921875 41.378906 57.707031 42.515625 56.65625 C 43.839844 55.4375 45.261719 54.347656 46.730469 53.316406 C 48.167969 52.304688 49.726562 51.332031 50.980469 50.097656 C 52.664062 48.421875 54.027344 46.292969 55.390625 44.347656 C 55.867188 43.675781 56.324219 42.933594 56.867188 42.3125 C 57.015625 42.148438 57.148438 42 57.363281 41.933594 L 57.5 41.972656 C 57.460938 42.4375 57.109375 43.042969 56.90625 43.460938 C 55.894531 45.550781 54.628906 47.671875 53.25 49.542969 L 51.777344 51.417969 C 51.515625 51.75 51.195312 52.089844 51.011719 52.460938 C 51.867188 51.820312 52.78125 51.304688 53.714844 50.789062 C 55.75 49.660156 57.859375 48.714844 59.960938 47.742188 L 65.644531 45.164062 C 66.460938 44.84375 67.300781 44.519531 68.144531 44.289062 C 68.417969 44.210938 68.691406 44.160156 68.960938 44.101562 C 69.019531 44.09375 69.234375 44.074219 69.273438 44.042969 C 69.3125 44.015625 69.449219 43.199219 69.46875 43.082031 C 69.976562 39.394531 70.023438 35.636719 69.722656 31.921875 C 69.644531 30.957031 69.605469 29.761719 69.214844 28.882812 C 68.980469 28.71875 68.757812 28.699219 68.476562 28.738281 L 68.417969 28.75 C 66.035156 29.050781 63.679688 29.769531 61.683594 31.152344 C 60.496094 31.980469 59.359375 33.15625 58.484375 34.304688 C 57.550781 35.519531 56.789062 36.824219 56.03125 38.148438 L 54.738281 40.453125 C 53.832031 42.207031 53.035156 44.015625 51.816406 45.582031 C 51.019531 46.613281 50.152344 47.605469 49.171875 48.460938 C 48.082031 49.414062 46.855469 50.15625 45.71875 51.039062 C 44.082031 52.324219 42.605469 53.746094 41.152344 55.242188 C 39.832031 56.605469 38.398438 58.074219 37.621094 59.828125 C 37.085938 61.03125 36.890625 62.367188 37.078125 63.671875 C 37.386719 65.832031 38.535156 67.203125 40.003906 68.710938 Z M 40.003906 68.710938 " fill-opacity="1" fill-rule="nonzero"/></g><g clip-path="url(#c1056856f3)"><path fill="#ffa237" d="M 72.59375 43.839844 C 75.765625 44.957031 78.789062 46.242188 81.84375 47.632812 C 84.949219 49.046875 88.160156 50.5625 90.933594 52.558594 C 88.917969 50.328125 87.226562 47.710938 85.765625 45.09375 C 85.261719 44.191406 84.675781 43.226562 84.464844 42.195312 L 84.519531 42.089844 C 84.597656 42.097656 84.675781 42.097656 84.746094 42.128906 C 84.824219 42.15625 84.988281 42.390625 85.046875 42.46875 L 85.992188 43.773438 L 88.34375 47.175781 C 89.035156 48.179688 89.738281 49.164062 90.59375 50.027344 C 92.011719 51.457031 93.695312 52.507812 95.320312 53.667969 C 96.820312 54.738281 98.261719 55.894531 99.632812 57.132812 C 101.285156 58.707031 102.902344 60.488281 102.96875 62.902344 C 103.019531 64.761719 102.601562 66.988281 101.734375 68.640625 C 102.347656 68.085938 102.949219 67.53125 103.4375 66.863281 C 104.214844 65.792969 104.664062 64.332031 104.710938 63.007812 C 104.820312 60.363281 103.632812 58.464844 101.878906 56.597656 C 100.273438 54.84375 98.53125 53.101562 96.675781 51.613281 C 94.765625 50.085938 92.664062 48.851562 91.050781 46.984375 C 89.191406 44.832031 88.152344 42.070312 86.847656 39.566406 C 85.269531 36.550781 83.082031 33.144531 80.25 31.160156 C 79.054688 30.324219 77.757812 29.761719 76.367188 29.351562 C 75.519531 29.097656 74.585938 28.835938 73.703125 28.804688 L 72.84375 28.816406 C 72.425781 29.914062 72.339844 31.132812 72.230469 32.300781 C 72.046875 34.363281 72.027344 36.394531 72.097656 38.46875 C 72.144531 40.25 72.261719 42.070312 72.59375 43.839844 Z M 72.59375 43.839844 " fill-opacity="1" fill-rule="nonzero"/></g><path fill="#ffa237" d="M 49.054688 54.835938 C 47.59375 55.652344 46.117188 56.460938 44.761719 57.441406 C 43.800781 58.144531 42.867188 58.980469 42.15625 59.941406 C 41.222656 61.226562 40.8125 62.785156 41.054688 64.359375 C 41.398438 66.492188 42.613281 68.105469 44.082031 69.625 C 45.785156 71.375 47.78125 72.875 49.765625 74.296875 C 51.273438 75.375 53.003906 76.359375 54.328125 77.660156 C 53.871094 76.757812 53.382812 75.832031 52.828125 74.984375 C 51.945312 73.644531 50.875 72.457031 49.863281 71.21875 L 47.613281 68.417969 C 46.738281 67.367188 45.628906 66.347656 44.988281 65.140625 C 44.667969 64.535156 44.539062 63.71875 44.753906 63.058594 C 45.601562 60.441406 52.792969 56.90625 55.203125 55.691406 L 58.628906 53.980469 L 63.261719 51.945312 C 65.722656 50.933594 68.164062 49.988281 70.859375 49.980469 C 72.582031 50.019531 74.140625 50.378906 75.773438 50.894531 C 78.625 51.789062 81.339844 53.023438 84.015625 54.328125 L 90 57.433594 C 92.121094 58.609375 94.652344 59.894531 96.332031 61.664062 C 96.867188 62.230469 97.308594 62.941406 97.277344 63.746094 C 97.25 64.339844 96.9375 64.964844 96.617188 65.460938 C 95.984375 66.441406 95.109375 67.289062 94.359375 68.195312 L 91.710938 71.542969 L 89.601562 74.21875 C 88.878906 75.21875 88.394531 76.339844 87.769531 77.398438 L 92.34375 74.257812 C 93.425781 73.46875 94.417969 72.574219 95.417969 71.6875 C 97.6875 69.691406 100.265625 67.492188 100.730469 64.332031 C 100.976562 62.667969 100.605469 61.207031 99.601562 59.867188 C 98.589844 58.511719 97.074219 57.480469 95.671875 56.558594 C 90.234375 52.9375 84.21875 50.398438 78.128906 48.113281 L 74.421875 46.789062 C 73.546875 46.507812 72.652344 46.203125 71.726562 46.085938 C 71.316406 46.027344 70.890625 46.019531 70.480469 46.066406 C 67.660156 46.496094 64.894531 47.644531 62.257812 48.683594 C 57.722656 50.476562 53.308594 52.449219 49.054688 54.835938 Z M 49.054688 54.835938 " fill-opacity="1" fill-rule="nonzero"/><g clip-path="url(#1c16976f53)"><path fill="#ffa237" d="M 113.128906 89.71875 C 112.523438 88.382812 111.6875 87.148438 110.800781 85.972656 C 108.660156 83.128906 105.9375 80.472656 102.949219 78.527344 C 101.714844 77.71875 100.390625 77.070312 99.046875 76.464844 C 97.511719 75.765625 95.574219 74.78125 93.832031 75.160156 C 92.492188 75.453125 91.253906 76.183594 90.039062 76.796875 C 89.085938 77.273438 87.957031 77.730469 87.1875 78.480469 C 86.320312 79.304688 85.6875 80.367188 84.675781 81.039062 C 84.988281 79.820312 85.777344 78.847656 86.292969 77.71875 C 87.148438 75.84375 87.695312 73.886719 88.230469 71.902344 C 88.414062 71.21875 88.648438 70.511719 88.765625 69.808594 C 87.042969 72.40625 85.378906 75.132812 83.441406 77.574219 L 74.664062 87.839844 L 72.425781 90.738281 C 71.929688 91.449219 71.53125 92.382812 70.898438 92.976562 C 70.0625 91.625 69.273438 90.261719 68.320312 88.988281 C 65.3125 84.960938 61.675781 81.445312 58.53125 77.515625 C 57.355469 76.046875 56.324219 74.507812 55.300781 72.933594 C 54.550781 71.765625 53.8125 70.570312 52.964844 69.480469 C 53.539062 71.289062 53.824219 73.167969 54.511719 74.949219 L 56.023438 78.402344 C 56.449219 79.296875 56.945312 80.144531 57.207031 81.105469 C 56.117188 80.328125 55.449219 79.152344 54.433594 78.304688 C 53.910156 77.867188 53.199219 77.546875 52.597656 77.203125 C 51.351562 76.496094 50.019531 75.519531 48.625 75.171875 C 47.984375 75.015625 47.3125 75.035156 46.671875 75.140625 C 44.957031 75.425781 43.363281 76.125 41.824219 76.902344 C 37.425781 79.152344 33.449219 82.429688 30.585938 86.476562 C 29.234375 88.382812 28.191406 90.601562 27.695312 92.890625 C 30.625 91.363281 33.699219 90.601562 36.929688 90.027344 C 38.820312 89.699219 40.707031 89.378906 42.613281 89.242188 C 47.246094 88.902344 52.0625 89.367188 56.5 90.777344 C 57.015625 90.945312 57.644531 91.253906 58.179688 91.265625 C 55.835938 89.894531 53.558594 88.382812 50.992188 87.46875 C 49.453125 86.925781 47.859375 86.632812 46.234375 86.527344 C 45.472656 86.476562 39.226562 86.449219 39.101562 86.320312 C 39.070312 86.292969 39.070312 86.242188 39.050781 86.214844 C 39.335938 85.980469 40.101562 86.03125 40.480469 86.019531 L 44.519531 85.992188 C 45.203125 86 45.882812 86.109375 46.5625 86.019531 C 45.425781 85.804688 43.539062 85.640625 42.828125 84.601562 C 42.671875 84.367188 42.621094 84.054688 42.691406 83.78125 C 42.757812 83.519531 42.945312 83.335938 43.175781 83.207031 C 43.996094 82.761719 45.929688 83.53125 46.769531 83.8125 C 49.929688 84.863281 52.90625 86.359375 55.710938 88.152344 C 56.730469 88.8125 57.761719 89.464844 58.707031 90.222656 C 60.292969 91.5 61.734375 92.9375 63.203125 94.359375 L 67.308594 98.464844 L 69.585938 101.082031 C 70.082031 101.675781 70.566406 102.308594 71.113281 102.863281 C 72.484375 100.820312 74.179688 98.933594 75.851562 97.132812 C 78.683594 94.097656 81.691406 91.128906 85.105469 88.746094 C 87.421875 87.128906 90.007812 85.726562 92.625 84.675781 C 93.714844 84.238281 97.480469 82.742188 98.472656 83.148438 C 98.71875 83.257812 98.960938 83.480469 99.058594 83.734375 C 99.15625 83.988281 99.117188 84.316406 99.007812 84.5625 C 98.757812 85.105469 97.988281 85.378906 97.441406 85.542969 L 95.359375 86.078125 C 96.0625 86.109375 96.773438 86.019531 97.472656 85.992188 L 100.664062 85.980469 C 101.304688 85.992188 102.027344 85.960938 102.640625 86.15625 C 101.917969 86.371094 101.226562 86.378906 100.480469 86.398438 L 97.65625 86.449219 C 94.726562 86.527344 91.957031 87.003906 89.269531 88.230469 C 88.179688 88.726562 87.167969 89.328125 86.144531 89.933594 C 85.417969 90.359375 84.589844 90.71875 83.910156 91.207031 L 88.34375 90.027344 C 89.796875 89.679688 91.285156 89.445312 92.761719 89.28125 C 96.292969 88.882812 99.925781 89.230469 103.425781 89.777344 C 107.046875 90.339844 110.890625 91.15625 114.109375 92.988281 C 113.878906 91.878906 113.59375 90.757812 113.128906 89.71875 Z M 113.128906 89.71875 " fill-opacity="1" fill-rule="nonzero"/></g><g clip-path="url(#128a5e1f69)"><g clip-path="url(#36fcf40f5d)"><g transform="matrix(1, 0, 0, 1, 28, 85)"><g clip-path="url(#ff93bcbc99)"><g clip-path="url(#2f6695ef88)"><g clip-path="url(#2b9eea927d)"><path fill="#08090b" d="M 0.824219 0.695312 L 87.183594 0.695312 L 87.183594 23.796875 L 0.824219 23.796875 Z M 0.824219 0.695312 " fill-opacity="1" fill-rule="nonzero"/></g></g></g></g></g></g><g transform="matrix(1, 0, 0, 1, 19, 81)"><g clip-path="url(#65fb93d32e)"><g fill="#f7e9b5" fill-opacity="1"><g transform="translate(8.198178, 32.199258)"><g><path d="M 5.65625 -1.875 L 0.625 -0.203125 L -4.796875 -16.53125 L 7.765625 -20.703125 L 13.1875 -4.375 L 8.578125 -1.4375 L 6.078125 -8.96875 L 3.578125 -8.140625 Z M 4.828125 -12.75 L 3.984375 -15.265625 L 1.484375 -14.4375 L 2.328125 -11.921875 Z M 4.828125 -12.75 "/></g></g></g><g fill="#f7e9b5" fill-opacity="1"><g transform="translate(21.559176, 27.738126)"><g><path d="M 11.875 -11.21875 L 13.609375 -2.796875 L 0.640625 -0.125 L -2.828125 -16.96875 L 10.140625 -19.640625 L 11.609375 -12.515625 L 6.6875 -10.15625 Z M 6.28125 -12.09375 L 5.75 -14.703125 L 3.15625 -14.171875 L 3.6875 -11.5625 Z M 7.09375 -8.203125 L 4.5 -7.671875 L 5.03125 -5.09375 L 7.625 -5.625 Z M 7.09375 -8.203125 "/></g></g></g><g fill="#f7e9b5" fill-opacity="1"><g transform="translate(35.34954, 24.867422)"><g><path d="M 8.5625 -0.734375 L 8 -7.3125 L 5.375 -7.09375 L 5.9375 -0.515625 L 0.65625 -0.0625 L -0.828125 -17.203125 L 4.453125 -17.65625 L 5.03125 -11.046875 L 7.65625 -11.265625 L 7.078125 -17.875 L 12.359375 -18.34375 L 13.84375 -1.203125 Z M 8.5625 -0.734375 "/></g></g></g><g fill="#f7e9b5" fill-opacity="1"><g transform="translate(49.687955, 23.793696)"><g><path d="M 0.65625 -22.484375 L 5.953125 -22.484375 L 5.953125 -18.515625 L 0.65625 -18.515625 Z M 0.65625 0 L 0.65625 -17.203125 L 5.953125 -17.203125 L 5.953125 0 Z M 0.65625 0 "/></g></g></g><g fill="#f7e9b5" fill-opacity="1"><g transform="translate(56.06247, 23.613824)"><g><path d="M 0.65625 0.0625 L 2.140625 -17.078125 L 15.328125 -15.9375 L 13.84375 1.203125 L 8.453125 2.0625 L 9.703125 -12.453125 L 7.078125 -12.671875 L 5.9375 0.515625 Z M 0.65625 0.0625 "/></g></g></g><g fill="#f7e9b5" fill-opacity="1"><g transform="translate(70.098768, 24.800727)"><g><path d="M 5.828125 1.203125 L 0.640625 0.125 L 4.109375 -16.71875 L 17.078125 -14.046875 L 13.609375 2.796875 L 8.15625 3.03125 L 9.75 -4.734375 L 7.15625 -5.265625 Z M 10.5625 -8.625 L 11.09375 -11.234375 L 8.5 -11.765625 L 7.96875 -9.15625 Z M 10.5625 -8.625 "/></g></g></g><g fill="#f7e9b5" fill-opacity="1"><g transform="translate(83.900276, 27.617996)"><g><path d="M 14.859375 -0.65625 L 6.484375 3.5625 L 2.296875 -4.828125 L 6.046875 -16.125 L 11.078125 -14.453125 L 7.734375 -4.390625 L 8.578125 -2.734375 L 10.234375 -3.5625 L 13.578125 -13.625 L 18.609375 -11.953125 Z M 14.859375 -0.65625 "/></g></g></g></g></g><g transform="matrix(1, 0, 0, 1, 51, 109)"><g clip-path="url(#667eee7ba5)"><g clip-path="url(#419c37fa3a)"><g fill="#f7e9b5" fill-opacity="1"><g transform="translate(0.956363, 5.514125)"><g><path d="M 4.40625 -0.234375 L 3.578125 -0.1875 L 2.640625 -1.9375 L 1.140625 -1.859375 L 1.234375 -0.0625 L 0.5 -0.03125 L 0.3125 -3.625 L -0.15625 -3.59375 L -0.1875 -4.328125 L 1.015625 -4.390625 L 1.109375 -2.59375 L 2.609375 -2.671875 L 3.359375 -4.515625 L 4.1875 -4.5625 L 3.28125 -2.34375 Z M 4.40625 -0.234375 "/></g></g></g></g><g clip-path="url(#60ce4620e0)"><g fill="#f7e9b5" fill-opacity="1"><g transform="translate(7.327717, 5.20269)"><g><path d="M 3.5 -1.28125 L 3.25 -1.28125 L 4.453125 -0.140625 L 3.453125 -0.109375 L 2.234375 -1.25 L 1.203125 -1.21875 L 1.234375 -0.046875 L 0.5 -0.015625 L 0.390625 -3.296875 L 1.125 -3.328125 L 1.171875 -1.96875 L 3.34375 -2.03125 L 3.28125 -3.703125 L -0.09375 -3.59375 L -0.109375 -4.328125 L 3.390625 -4.4375 L 4.015625 -3.859375 L 4.078125 -1.9375 Z M 3.5 -1.28125 "/></g></g></g></g><g clip-path="url(#dba49895d6)"><g fill="#f7e9b5" fill-opacity="1"><g transform="translate(13.6426, 5.017054)"><g><path d="M 1.046875 -0.015625 L 0.3125 0 L 0.234375 -4.328125 L 0.96875 -4.34375 Z M 1.046875 -0.015625 "/></g></g></g></g><g clip-path="url(#160e62dce2)"><g fill="#f7e9b5" fill-opacity="1"><g transform="translate(16.807587, 4.957725)"><g><path d="M 3.5625 -0.015625 L 0.3125 0 L 0.3125 -0.75 L 3.4375 -0.765625 L 3.421875 -1.8125 L 0.90625 -1.796875 L 0.296875 -2.40625 L 0.296875 -3.71875 L 0.890625 -4.328125 L 4.140625 -4.34375 L 4.15625 -3.609375 L 1.03125 -3.59375 L 1.03125 -2.53125 L 3.546875 -2.546875 L 4.15625 -1.9375 L 4.171875 -0.640625 Z M 3.5625 -0.015625 "/></g></g></g></g><g clip-path="url(#b8a26089c7)"><g fill="#f7e9b5" fill-opacity="1"><g transform="translate(23.087171, 4.938735)"><g><path d="M 4.453125 0.0625 L 3.71875 0.046875 L 3.75 -1.75 L 1.265625 -1.78125 L 1.234375 0.015625 L 0.5 0 L 0.546875 -3.59375 L 0.078125 -3.59375 L 0.09375 -4.328125 L 1.296875 -4.3125 L 1.265625 -2.515625 L 3.75 -2.484375 L 3.78125 -4.28125 L 4.515625 -4.265625 Z M 4.453125 0.0625 "/></g></g></g></g><g clip-path="url(#e685562cd2)"><g fill="#f7e9b5" fill-opacity="1"><g transform="translate(29.644452, 5.043539)"><g><path d="M 4.140625 0.125 L 3.40625 0.109375 L 1.328125 -3.015625 L 1.234375 0.046875 L 0.5 0.015625 L 0.609375 -3.578125 L 0.140625 -3.59375 L 0.171875 -4.328125 L 1.375 -4.28125 L 3.453125 -1.171875 L 3.546875 -4.21875 L 4.28125 -4.203125 Z M 4.140625 0.125 "/></g></g></g></g><g clip-path="url(#01b908c03d)"><g fill="#f7e9b5" fill-opacity="1"><g transform="translate(35.889079, 5.25712)"><g><path d="M 4.96875 0.25 L 4.171875 0.21875 L 3.796875 -0.671875 L 1.328125 -0.796875 L 0.859375 0.046875 L 0.0625 0 L 1.921875 -3.5 L 1.453125 -3.53125 L 1.484375 -4.265625 L 3.15625 -4.171875 Z M 3.484375 -1.4375 L 2.71875 -3.5 L 2.6875 -3.5 L 1.6875 -1.53125 Z M 3.484375 -1.4375 "/></g></g></g></g></g></g></svg>